<?xml version="1.0" encoding="utf-8"?>
<!-- Generator: Adobe Illustrator 17.0.2, SVG Export Plug-In . SVG Version: 6.00 Build 0)  -->
<!DOCTYPE svg PUBLIC "-//W3C//DTD SVG 1.1//EN" "http://www.w3.org/Graphics/SVG/1.1/DTD/svg11.dtd">
<svg version="1.1" id="Layer_1" xmlns="http://www.w3.org/2000/svg" xmlns:xlink="http://www.w3.org/1999/xlink" x="0px" y="0px"
	 width="620px" height="380px" viewBox="0 0.5 620 380" enable-background="new 0 0.5 620 380" xml:space="preserve">
<g>
	<path fill="#27AEBD" d="M57.6,35.9c-0.4-0.3-0.9-0.4-1.4-0.4c-1.3,0-2.1,1.4-2.2,3.6c0.6-0.9,1.4-1.2,2.2-1.2c1.4,0,2.6,1,2.6,3
		s-1.3,3.3-2.9,3.3c-2.2,0-3.1-1.9-3.1-4.6c0-3,1.3-5.1,3.5-5.1c0.7,0,1.4,0.2,1.9,0.6L57.6,35.9z M54,40.2c0.1,2,0.6,3,1.8,3
		c1.1,0,1.6-0.9,1.6-2.3c0-1.5-0.6-2-1.5-2C55.2,38.9,54.5,39.4,54,40.2z"/>
	<path fill="#27AEBD" d="M63.4,44.2c-2.1,0-3.1-1.7-3.1-4.8s1-4.8,3.1-4.8s3.1,1.7,3.1,4.8C66.5,42.4,65.5,44.2,63.4,44.2z
		 M63.4,43.1c1.2,0,1.8-1.1,1.8-3.8s-0.6-3.8-1.8-3.8s-1.8,1.1-1.8,3.8C61.6,42.1,62.2,43.1,63.4,43.1z"/>
	<path fill="#27AEBD" d="M72.4,47V36.6h1.1l0.1,1c0.5-0.8,1.3-1.2,2.2-1.2c2,0,2.7,1.5,2.7,3.9c0,2.2-1,3.9-2.9,3.9
		c-0.8,0-1.5-0.3-1.9-0.8v3.5L72.4,47z M77.1,40.3c0-1.9-0.6-2.8-1.7-2.8c-0.8,0-1.4,0.6-1.8,1.1v3.6c0.4,0.6,1,0.9,1.6,0.9
		C76.4,43.1,77.1,42.2,77.1,40.3z"/>
	<path fill="#27AEBD" d="M81.2,34.9c-0.5,0-0.9-0.4-0.9-0.9s0.4-0.9,0.9-0.9s0.9,0.4,0.9,0.9C82.1,34.6,81.7,34.9,81.2,34.9z
		 M80.6,44v-7.4h1.3V44H80.6z"/>
	<path fill="#27AEBD" d="M86.5,40.9L84.7,44h-1.5l2.6-3.9l-2.3-3.5H85l1.5,2.6h0.1l1.5-2.6h1.5L87.3,40l2.5,4h-1.6L86.5,40.9
		L86.5,40.9z"/>
	<path fill="#27AEBD" d="M91.9,40.8c0.1,1.6,0.9,2.4,2,2.4c0.7,0,1.2-0.2,1.8-0.7l0.6,0.9c-0.7,0.5-1.5,0.9-2.5,0.9
		c-2.2,0-3.3-1.6-3.3-3.9c0-2.2,1.2-3.9,3.1-3.9s3,1.4,3,3.6c0,0.3,0,0.5,0,0.7H91.9z M91.9,39.8h3.5c0-1.5-0.6-2.3-1.7-2.3
		C92.7,37.5,92,38.2,91.9,39.8z"/>
	<path fill="#27AEBD" d="M101.2,43.9c-0.3,0.2-0.7,0.3-1.1,0.3c-0.9,0-1.5-0.5-1.5-1.8v-8.8l1.3-0.2v9c0,0.4,0.1,0.6,0.5,0.6
		c0.2,0,0.3,0,0.5-0.1L101.2,43.9z"/>
	<path fill="#27AEBD" d="M106.1,42c0-0.7-0.4-1-1.8-1.4c-1.3-0.3-2.2-0.9-2.2-2.1c0-1.2,1.2-2.1,2.8-2.1c1,0,1.8,0.3,2.4,0.7
		l-0.6,0.9c-0.5-0.4-1.1-0.6-1.9-0.6s-1.4,0.4-1.4,1s0.5,0.9,1.7,1.2c1.3,0.4,2.3,0.8,2.3,2.3c0,1.6-1.4,2.3-2.9,2.3
		c-1.2,0-2.1-0.4-2.8-1l0.7-0.8c0.6,0.5,1.3,0.7,2,0.7C105.5,43.1,106.1,42.7,106.1,42z"/>
	<path fill="#27AEBD" d="M69.9,58.9c0,0.3,0.2,0.6,0.8,0.6h1c1.8,0,2.8,0.7,2.8,2.1c0,1.5-1.5,2.2-3.4,2.2c-2.2,0-3.2-0.7-3.2-2.2
		v-0.1h1.2c0,1,0.8,1.2,2,1.2c1.6,0,2.1-0.5,2.1-1.1s-0.3-1.1-1.6-1.1h-1c-1.2,0-2-0.6-2-1.4c0-0.4,0.3-0.9,0.7-1.2
		c-0.7-0.4-1.2-1.1-1.2-2c0-1.5,1.1-2.6,2.9-2.6c1.6,0,2.5-0.3,3.3-0.7l0.4,1.2C74.3,54,73.6,54,72.8,54l0,0c0.7,0.3,1.2,1,1.2,1.8
		c0,1.4-1,2.5-2.8,2.5c-0.3,0-0.7,0-1-0.1C70.1,58.4,69.9,58.6,69.9,58.9z M71.2,57.5c1,0,1.5-0.7,1.5-1.7c0-1.1-0.5-1.7-1.5-1.7
		s-1.6,0.7-1.6,1.7S70.2,57.5,71.2,57.5z"/>
	<path fill="#27AEBD" d="M76.3,60.8v-7.4h1.1l0.2,1.4c0.4-1,1.1-1.6,1.9-1.6c0.2,0,0.5,0,0.7,0.1L80,54.6c-0.2-0.1-0.4-0.1-0.6-0.1
		c-0.9,0-1.5,0.9-1.8,2v4.3H76.3z"/>
	<path fill="#27AEBD" d="M82.2,51.7c-0.5,0-0.9-0.4-0.9-0.9s0.4-0.9,0.9-0.9s0.9,0.4,0.9,0.9C83.1,51.4,82.7,51.7,82.2,51.7z
		 M81.6,60.8v-7.4h1.3v7.4H81.6z"/>
	<path fill="#27AEBD" d="M89.8,54.1v-3.8l1.3,0.2v10.4H90l-0.1-1c-0.5,0.8-1.3,1.1-2.1,1.1c-1.9,0-2.8-1.5-2.8-3.9
		c0-2.2,1.1-3.9,2.9-3.9C88.7,53.2,89.4,53.5,89.8,54.1z M86.3,57.1c0,1.9,0.6,2.8,1.7,2.8c0.8,0,1.4-0.5,1.8-1.1v-3.6
		c-0.4-0.6-1-0.9-1.6-0.9C87,54.3,86.3,55.2,86.3,57.1z"/>
</g>
<g>
	<path fill="#27AEBD" d="M211,41.7V44h-1.2v-2.3h-3.9v-0.9l2.7-6.3l1.1,0.4l-2.4,5.7h2.5l0.1-2.5h1.1v2.5h1.2v1H211V41.7z"/>
	<path fill="#27AEBD" d="M217.8,39c1.2,0.5,2,1.4,2,2.5c0,1.6-1.3,2.7-3.2,2.7s-3.2-1.1-3.2-2.6c0-1.2,0.7-1.9,1.8-2.4
		c-1-0.5-1.5-1.2-1.5-2.2c0-1.7,1.6-2.4,2.8-2.4c1.4,0,2.8,0.7,2.8,2.4C219.4,37.7,218.9,38.4,217.8,39z M216,39.4
		c-0.7,0.3-1.4,0.9-1.4,2.1c0,1,0.7,1.6,1.9,1.6s1.9-0.7,1.9-1.6C218.4,40.3,217.5,40,216,39.4z M216.9,38.7c0.8-0.5,1.2-1,1.2-1.8
		c0-0.9-0.6-1.5-1.6-1.5s-1.6,0.5-1.6,1.5C215,37.9,215.7,38.3,216.9,38.7z"/>
	<path fill="#27AEBD" d="M225.5,47V36.6h1.1l0.1,1c0.5-0.8,1.3-1.2,2.2-1.2c2,0,2.7,1.5,2.7,3.9c0,2.2-1,3.9-2.9,3.9
		c-0.8,0-1.5-0.3-1.9-0.8v3.5L225.5,47z M230.3,40.3c0-1.9-0.6-2.8-1.7-2.8c-0.8,0-1.4,0.6-1.8,1.1v3.6c0.4,0.6,1,0.9,1.6,0.9
		C229.6,43.1,230.3,42.2,230.3,40.3z"/>
	<path fill="#27AEBD" d="M234.4,34.9c-0.5,0-0.9-0.4-0.9-0.9s0.4-0.9,0.9-0.9s0.9,0.4,0.9,0.9C235.3,34.6,234.9,34.9,234.4,34.9z
		 M233.8,44v-7.4h1.3V44H233.8z"/>
	<path fill="#27AEBD" d="M239.6,40.9l-1.8,3.1h-1.5l2.6-3.9l-2.3-3.5h1.5l1.5,2.6h0.1l1.5-2.6h1.5l-2.3,3.4l2.5,4h-1.6L239.6,40.9
		L239.6,40.9z"/>
	<path fill="#27AEBD" d="M245.1,40.8c0.1,1.6,0.9,2.4,2,2.4c0.7,0,1.2-0.2,1.8-0.7l0.6,0.9c-0.7,0.5-1.5,0.9-2.5,0.9
		c-2.2,0-3.3-1.6-3.3-3.9c0-2.2,1.2-3.9,3.1-3.9c1.9,0,3,1.4,3,3.6c0,0.3,0,0.5,0,0.7H245.1z M245.1,39.8h3.5c0-1.5-0.6-2.3-1.7-2.3
		C245.8,37.5,245.2,38.2,245.1,39.8z"/>
	<path fill="#27AEBD" d="M254.4,43.9c-0.3,0.2-0.7,0.3-1.1,0.3c-0.9,0-1.5-0.5-1.5-1.8v-8.8l1.3-0.2v9c0,0.4,0.1,0.6,0.5,0.6
		c0.2,0,0.3,0,0.5-0.1L254.4,43.9z"/>
	<path fill="#27AEBD" d="M259.3,42c0-0.7-0.4-1-1.8-1.4c-1.3-0.3-2.2-0.9-2.2-2.1c0-1.2,1.2-2.1,2.8-2.1c1,0,1.8,0.3,2.4,0.7
		l-0.6,0.9c-0.5-0.4-1.1-0.6-1.9-0.6s-1.4,0.4-1.4,1s0.5,0.9,1.7,1.2c1.3,0.4,2.3,0.8,2.3,2.3c0,1.6-1.4,2.3-2.9,2.3
		c-1.2,0-2.1-0.4-2.8-1l0.7-0.8c0.6,0.5,1.3,0.7,2,0.7C258.7,43.1,259.3,42.7,259.3,42z"/>
	<path fill="#27AEBD" d="M223.2,58.9c0,0.3,0.2,0.6,0.8,0.6h1c1.8,0,2.8,0.7,2.8,2.1c0,1.5-1.5,2.2-3.4,2.2c-2.2,0-3.2-0.7-3.2-2.2
		v-0.1h1.2c0,1,0.8,1.2,2,1.2c1.6,0,2.1-0.5,2.1-1.1s-0.3-1.1-1.6-1.1h-1c-1.2,0-2-0.6-2-1.4c0-0.4,0.3-0.9,0.7-1.2
		c-0.7-0.4-1.2-1.1-1.2-2c0-1.5,1.1-2.6,2.9-2.6c1.6,0,2.5-0.3,3.3-0.7l0.4,1.2c-0.6,0.2-1.3,0.2-2.1,0.2v0c0.7,0.3,1.2,1,1.2,1.8
		c0,1.4-1,2.5-2.8,2.5c-0.3,0-0.7,0-1-0.1C223.3,58.4,223.2,58.6,223.2,58.9z M224.5,57.5c1,0,1.5-0.7,1.5-1.7
		c0-1.1-0.5-1.7-1.5-1.7s-1.6,0.7-1.6,1.7S223.4,57.5,224.5,57.5z"/>
	<path fill="#27AEBD" d="M229.5,60.8v-7.4h1.1l0.2,1.4c0.4-1,1.1-1.6,1.9-1.6c0.2,0,0.5,0,0.7,0.1l-0.2,1.3
		c-0.2-0.1-0.4-0.1-0.6-0.1c-0.9,0-1.5,0.9-1.8,2v4.3H229.5z"/>
	<path fill="#27AEBD" d="M235.5,51.7c-0.5,0-0.9-0.4-0.9-0.9s0.4-0.9,0.9-0.9s0.9,0.4,0.9,0.9C236.4,51.4,236,51.7,235.5,51.7z
		 M234.8,60.8v-7.4h1.3v7.4H234.8z"/>
	<path fill="#27AEBD" d="M243.1,54.1v-3.8l1.3,0.2v10.4h-1.1l-0.1-1c-0.5,0.8-1.3,1.1-2.1,1.1c-1.9,0-2.8-1.5-2.8-3.9
		c0-2.2,1.1-3.9,2.9-3.9C242,53.2,242.6,53.5,243.1,54.1z M239.6,57.1c0,1.9,0.6,2.8,1.7,2.8c0.8,0,1.4-0.5,1.8-1.1v-3.6
		c-0.4-0.6-1-0.9-1.6-0.9C240.3,54.3,239.6,55.2,239.6,57.1z"/>
</g>
<g>
	<path fill="#27AEBD" d="M373.5,44.2c-1.1,0-2.1-0.4-2.8-1.3l0.9-0.7c0.5,0.7,1.2,0.9,1.9,0.9c1.2,0,1.9-0.7,1.9-1.8
		c0-1.3-0.7-1.7-1.9-1.7h-0.6l0.2-1h0.4c0.9,0,1.7-0.6,1.7-1.7c0-0.9-0.6-1.4-1.6-1.4c-0.7,0-1.3,0.3-1.9,0.8l-0.7-0.8
		c0.8-0.7,1.7-1.1,2.7-1.1c1.8,0,2.8,1.1,2.8,2.4c0,1.2-0.8,1.9-1.8,2.1V39c1.1,0.1,2,0.9,2,2.2C376.7,42.9,375.5,44.2,373.5,44.2z"
		/>
	<path fill="#27AEBD" d="M381.4,44.2c-2.1,0-3.1-1.7-3.1-4.8s1-4.8,3.1-4.8s3.1,1.7,3.1,4.8C384.6,42.4,383.5,44.2,381.4,44.2z
		 M381.4,43.1c1.2,0,1.8-1.1,1.8-3.8s-0.6-3.8-1.8-3.8c-1.2,0-1.8,1.1-1.8,3.8C379.7,42.1,380.3,43.1,381.4,43.1z"/>
	<path fill="#27AEBD" d="M390.4,47V36.6h1.1l0.1,1c0.5-0.8,1.3-1.2,2.2-1.2c2,0,2.7,1.5,2.7,3.9c0,2.2-1,3.9-2.9,3.9
		c-0.8,0-1.5-0.3-1.9-0.8v3.5L390.4,47z M395.2,40.3c0-1.9-0.6-2.8-1.7-2.8c-0.8,0-1.4,0.6-1.8,1.1v3.6c0.4,0.6,1,0.9,1.6,0.9
		C394.5,43.1,395.2,42.2,395.2,40.3z"/>
	<path fill="#27AEBD" d="M399.3,34.9c-0.5,0-0.9-0.4-0.9-0.9s0.4-0.9,0.9-0.9s0.9,0.4,0.9,0.9C400.2,34.6,399.8,34.9,399.3,34.9z
		 M398.7,44v-7.4h1.3V44H398.7z"/>
	<path fill="#27AEBD" d="M404.6,40.9l-1.8,3.1h-1.5l2.6-3.9l-2.3-3.5h1.5l1.5,2.6h0.1l1.5-2.6h1.5l-2.3,3.4l2.5,4h-1.6L404.6,40.9
		L404.6,40.9z"/>
	<path fill="#27AEBD" d="M410,40.8c0.1,1.6,0.9,2.4,2,2.4c0.7,0,1.2-0.2,1.8-0.7l0.6,0.9c-0.7,0.5-1.5,0.9-2.5,0.9
		c-2.2,0-3.3-1.6-3.3-3.9c0-2.2,1.2-3.9,3.1-3.9s3,1.4,3,3.6c0,0.3,0,0.5,0,0.7H410z M410,39.8h3.5c0-1.5-0.6-2.3-1.7-2.3
		C410.7,37.5,410.1,38.2,410,39.8z"/>
	<path fill="#27AEBD" d="M419.3,43.9c-0.3,0.2-0.7,0.3-1.1,0.3c-0.9,0-1.5-0.5-1.5-1.8v-8.8l1.3-0.2v9c0,0.4,0.1,0.6,0.5,0.6
		c0.2,0,0.3,0,0.5-0.1L419.3,43.9z"/>
	<path fill="#27AEBD" d="M424.2,42c0-0.7-0.4-1-1.8-1.4c-1.3-0.3-2.2-0.9-2.2-2.1c0-1.2,1.2-2.1,2.8-2.1c1,0,1.8,0.3,2.4,0.7
		l-0.6,0.9c-0.5-0.4-1.1-0.6-1.9-0.6s-1.4,0.4-1.4,1s0.5,0.9,1.7,1.2c1.3,0.4,2.3,0.8,2.3,2.3c0,1.6-1.4,2.3-2.9,2.3
		c-1.2,0-2.1-0.4-2.8-1l0.7-0.8c0.6,0.5,1.3,0.7,2,0.7C423.6,43.1,424.2,42.7,424.2,42z"/>
	<path fill="#27AEBD" d="M388.2,58.9c0,0.3,0.2,0.6,0.8,0.6h1c1.8,0,2.8,0.7,2.8,2.1c0,1.5-1.5,2.2-3.4,2.2c-2.2,0-3.2-0.7-3.2-2.2
		v-0.1h1.2c0,1,0.8,1.2,2,1.2c1.6,0,2.1-0.5,2.1-1.1s-0.3-1.1-1.6-1.1h-1c-1.2,0-2-0.6-2-1.4c0-0.4,0.3-0.9,0.7-1.2
		c-0.7-0.4-1.2-1.1-1.2-2c0-1.5,1.1-2.6,2.9-2.6c1.6,0,2.5-0.3,3.3-0.7l0.4,1.2c-0.6,0.2-1.3,0.2-2.1,0.2v0c0.7,0.3,1.2,1,1.2,1.8
		c0,1.4-1,2.5-2.8,2.5c-0.3,0-0.7,0-1-0.1C388.4,58.4,388.2,58.6,388.2,58.9z M389.5,57.5c1,0,1.5-0.7,1.5-1.7
		c0-1.1-0.5-1.7-1.5-1.7s-1.6,0.7-1.6,1.7S388.5,57.5,389.5,57.5z"/>
	<path fill="#27AEBD" d="M394.6,60.8v-7.4h1.1l0.2,1.4c0.4-1,1.1-1.6,1.9-1.6c0.2,0,0.5,0,0.7,0.1l-0.2,1.3
		c-0.2-0.1-0.4-0.1-0.6-0.1c-0.9,0-1.5,0.9-1.8,2v4.3H394.6z"/>
	<path fill="#27AEBD" d="M400.5,51.7c-0.5,0-0.9-0.4-0.9-0.9s0.4-0.9,0.9-0.9s0.9,0.4,0.9,0.9C401.4,51.4,401.1,51.7,400.5,51.7z
		 M399.9,60.8v-7.4h1.3v7.4H399.9z"/>
	<path fill="#27AEBD" d="M408.2,54.1v-3.8l1.3,0.2v10.4h-1.1l-0.1-1c-0.5,0.8-1.3,1.1-2.1,1.1c-1.9,0-2.8-1.5-2.8-3.9
		c0-2.2,1.1-3.9,2.9-3.9C407,53.2,407.7,53.5,408.2,54.1z M404.7,57.1c0,1.9,0.6,2.8,1.7,2.8c0.8,0,1.4-0.5,1.8-1.1v-3.6
		c-0.4-0.6-1-0.9-1.6-0.9C405.4,54.3,404.7,55.2,404.7,57.1z"/>
</g>
<g>
	<path fill="#27AEBD" d="M528.2,42.9h4.2l-0.2,1.1h-5.5v-1c3.3-3.3,4.1-4.3,4.1-5.8c0-1.1-0.6-1.6-1.5-1.6c-0.8,0-1.3,0.3-1.9,1
		l-0.9-0.7c0.8-0.9,1.7-1.4,2.8-1.4c1.7,0,2.8,1.1,2.8,2.6C532.2,38.8,531.1,40.2,528.2,42.9z"/>
	<path fill="#27AEBD" d="M538.7,41.7V44h-1.2v-2.3h-3.9v-0.9l2.7-6.3l1.1,0.4l-2.4,5.7h2.5l0.1-2.5h1.1v2.5h1.2v1h-1.2V41.7z"/>
	<path fill="#27AEBD" d="M545.4,47V36.6h1.1l0.1,1c0.5-0.8,1.3-1.2,2.2-1.2c2,0,2.7,1.5,2.7,3.9c0,2.2-1,3.9-2.9,3.9
		c-0.8,0-1.5-0.3-1.9-0.8v3.5L545.4,47z M550.2,40.3c0-1.9-0.6-2.8-1.7-2.8c-0.8,0-1.4,0.6-1.8,1.1v3.6c0.4,0.6,1,0.9,1.6,0.9
		C549.5,43.1,550.2,42.2,550.2,40.3z"/>
	<path fill="#27AEBD" d="M554.3,34.9c-0.5,0-0.9-0.4-0.9-0.9s0.4-0.9,0.9-0.9s0.9,0.4,0.9,0.9C555.2,34.6,554.8,34.9,554.3,34.9z
		 M553.7,44v-7.4h1.3V44H553.7z"/>
	<path fill="#27AEBD" d="M559.6,40.9l-1.8,3.1h-1.5l2.6-3.9l-2.3-3.5h1.5l1.5,2.6h0.1l1.5-2.6h1.5l-2.3,3.4l2.5,4h-1.6L559.6,40.9
		L559.6,40.9z"/>
	<path fill="#27AEBD" d="M565,40.8c0.1,1.6,0.9,2.4,2,2.4c0.7,0,1.2-0.2,1.8-0.7l0.6,0.9c-0.7,0.5-1.5,0.9-2.5,0.9
		c-2.2,0-3.3-1.6-3.3-3.9c0-2.2,1.2-3.9,3.1-3.9c1.9,0,3,1.4,3,3.6c0,0.3,0,0.5,0,0.7H565z M565,39.8h3.5c0-1.5-0.6-2.3-1.7-2.3
		C565.7,37.5,565.1,38.2,565,39.8z"/>
	<path fill="#27AEBD" d="M574.3,43.9c-0.3,0.2-0.7,0.3-1,0.3c-0.9,0-1.5-0.5-1.5-1.8v-8.8l1.3-0.2v9c0,0.4,0.1,0.6,0.5,0.6
		c0.2,0,0.3,0,0.5-0.1L574.3,43.9z"/>
	<path fill="#27AEBD" d="M579.2,42c0-0.7-0.4-1-1.8-1.4c-1.3-0.3-2.2-0.9-2.2-2.1c0-1.2,1.2-2.1,2.8-2.1c1,0,1.8,0.3,2.4,0.7
		l-0.6,0.9c-0.5-0.4-1.1-0.6-1.9-0.6c-0.8,0-1.4,0.4-1.4,1s0.5,0.9,1.7,1.2c1.3,0.4,2.3,0.8,2.3,2.3c0,1.6-1.4,2.3-2.9,2.3
		c-1.2,0-2.1-0.4-2.8-1l0.7-0.8c0.6,0.5,1.3,0.7,2,0.7C578.6,43.1,579.2,42.7,579.2,42z"/>
	<path fill="#27AEBD" d="M543.6,58.9c0,0.3,0.2,0.6,0.8,0.6h1c1.8,0,2.8,0.7,2.8,2.1c0,1.5-1.5,2.2-3.4,2.2c-2.2,0-3.2-0.7-3.2-2.2
		v-0.1h1.2c0,1,0.8,1.2,2,1.2c1.6,0,2.1-0.5,2.1-1.1s-0.3-1.1-1.6-1.1h-1c-1.2,0-2-0.6-2-1.4c0-0.4,0.3-0.9,0.7-1.2
		c-0.7-0.4-1.2-1.1-1.2-2c0-1.5,1.1-2.6,2.9-2.6c1.6,0,2.5-0.3,3.3-0.7l0.4,1.2c-0.6,0.2-1.3,0.2-2.1,0.2v0c0.7,0.3,1.2,1,1.2,1.8
		c0,1.4-1,2.5-2.8,2.5c-0.3,0-0.7,0-1-0.1C543.7,58.4,543.6,58.6,543.6,58.9z M544.8,57.5c1,0,1.5-0.7,1.5-1.7
		c0-1.1-0.5-1.7-1.5-1.7s-1.6,0.7-1.6,1.7C543.3,56.8,543.8,57.5,544.8,57.5z"/>
	<path fill="#27AEBD" d="M549.9,60.8v-7.4h1.1l0.2,1.4c0.4-1,1.1-1.6,1.9-1.6c0.2,0,0.5,0,0.7,0.1l-0.2,1.3
		c-0.2-0.1-0.4-0.1-0.6-0.1c-0.9,0-1.5,0.9-1.8,2v4.3H549.9z"/>
	<path fill="#27AEBD" d="M555.9,51.7c-0.5,0-0.9-0.4-0.9-0.9s0.4-0.9,0.9-0.9s0.9,0.4,0.9,0.9C556.8,51.4,556.4,51.7,555.9,51.7z
		 M555.2,60.8v-7.4h1.3v7.4H555.2z"/>
	<path fill="#27AEBD" d="M563.5,54.1v-3.8l1.3,0.2v10.4h-1.1l-0.1-1c-0.5,0.8-1.3,1.1-2.1,1.1c-1.9,0-2.8-1.5-2.8-3.9
		c0-2.2,1.1-3.9,2.9-3.9C562.4,53.2,563,53.5,563.5,54.1z M560,57.1c0,1.9,0.6,2.8,1.7,2.8c0.8,0,1.4-0.5,1.8-1.1v-3.6
		c-0.4-0.6-1-0.9-1.6-0.9C560.7,54.3,560,55.2,560,57.1z"/>
</g>
<g>
	<path fill="#0D181F" d="M72.5,224.6c1.68,0,4.063-0.708,5.975-3.913c3.734,6.631,5.025,11.952,5.025,12.013c0.1,0.5,0.5,0.8,1,0.8
		c0.4,0,0.8-0.2,0.9-0.9c0-0.061,1.254-3.69,3.823-7.318C90.868,228.341,92.977,229,94.6,229c1.9,0,4-1,5.5-2.8
		c3.2-3.3,4.3-12.4,2.2-17.1c-0.2-0.3-0.4-0.5-0.7-0.6c-0.2,0-0.6,0-0.8,0.2c-2.2,1.7-4.4,2.3-6.4,2.8c-1.8,0.5-3.6,1-5.5,2.2
		c-2,1.4-3.3,3.4-3.3,5.4c0,1.167,0.496,2.896,2.401,4.539c-1.535,2.07-2.655,4.176-3.401,5.761
		c-0.799-2.398-2.298-6.17-4.783-10.417c2.819-1.462,4.524-3.352,5.083-5.683c0.8-3.6-1.3-6.8-2.7-8.4c-2.2-2.7-5.5-3.5-9-4.3
		c-3.2-0.7-6.4-1.5-9.1-3.8c-0.2-0.2-0.5-0.3-0.8-0.2c-0.3,0-0.6,0.2-0.7,0.5c-3.4,6.4-1.7,18.6,2.1,23.1
		C67.1,223,70,224.6,72.5,224.6z M87.7,219.1c0-1.3,0.9-2.7,2.4-3.7c1.6-1,3.2-1.5,4.9-1.9c1.8-0.5,3.8-1,6-2.4
		c1.3,4.4,0,11.4-2,13.7c-1.3,1.4-2.9,2.2-4.2,2.2c-2.116,0-3.393-1.939-4.111-3.6c1.437-1.667,3.17-3.194,5.211-4.2
		c0.4-0.2,0.6-0.8,0.4-1.3c-0.2-0.4-0.8-0.6-1.3-0.4c-2.263,1.111-4.149,2.75-5.702,4.528C88.222,221.116,87.7,220.14,87.7,219.1z
		 M63.9,199.1c2.8,2,6,2.7,8.8,3.3c3.3,0.8,6.1,1.5,8,3.7c1.9,2.3,2.8,4.7,2.3,6.7c-0.366,1.83-1.831,3.32-4.22,4.48
		c-2.391-3.788-5.553-7.844-9.68-11.58c-0.4-0.3-1-0.3-1.4,0.1c-0.3,0.4-0.3,1,0.1,1.4c4.077,3.676,7.179,7.731,9.507,11.506
		c-1.272,2.584-2.95,3.894-4.807,3.894c-1.9,0-4.2-1.3-6.2-3.7C63.1,215.2,61.6,205,63.9,199.1z"/>
	<path fill="#0D181F" d="M110.1,242.8c-2.2-2.3-4.8-4.3-8.5-3.2l-9.214,3.071c0.002-0.057,0.014-0.114,0.014-0.171c0-2-1.4-4-4-4
		c-1.7,0-2.8,0-3.7,0c-1.3,0-2.1,0-3.9,0c-3.4-2.7-7.2-4-11.3-4h-7v-1c0-0.6-0.4-1-1-1h-10c-0.6,0-1,0.4-1,1v18c0,0.6,0.4,1,1,1h10
		c0.6,0,1-0.4,1-1v-0.763c2.45,0.825,4.629,1.582,6.5,2.263c6.4,2.3,10,3.5,13.4,3.5c4.2,0,8-2,16.4-6.4c2.9-1.5,6.6-3.5,11.1-5.7
		c0.2-0.1,0.4-0.4,0.5-0.7C110.4,243.3,110.3,243,110.1,242.8z M60.5,250.5h-8v-16h8V250.5z M98,248.3c-14.5,7.6-14.5,7.6-28.2,2.8
		c-2.141-0.745-4.558-1.58-7.3-2.498V236.5h7c3.8,0,7.2,1.3,10.4,3.8c0.2,0.1,0.4,0.2,0.6,0.2c2,0,2.9,0,4.3,0c0.9,0,2,0,3.7,0
		c1.5,0,2,1.1,2,2c0,0.9-0.5,2-2,2h-14c-0.6,0-1,0.4-1,1c0,0.6,0.4,1,1,1h14c1.388,0,2.393-0.578,3.04-1.413l10.86-3.587
		c1.9-0.6,3.4-0.1,5.5,1.7C104,245.2,100.7,246.9,98,248.3z"/>
</g>
<g>
	<path fill="#0D181F" d="M396.5,238.6c0.902,0,2.126-0.42,2.945-2.116c1.908,3.35,2.555,6.055,2.555,6.116c0.1,0.2,0.3,0.4,0.5,0.4
		s0.4-0.1,0.6-0.2c0,0,0.643-1.844,1.945-3.685c0.826,1.288,1.796,1.585,2.555,1.585c0.9,0,2-0.5,2.8-1.3c1.6-1.7,2.2-6.3,1.1-8.6
		c0-0.2-0.2-0.3-0.3-0.3c-0.1,0-0.3,0-0.4,0.1c-1.1,0.9-2.2,1.1-3.2,1.4c-0.9,0.2-1.9,0.5-2.8,1.1c-1.1,0.7-1.7,1.7-1.7,2.7
		c0,0.564,0.189,1.48,1.289,2.336c-0.809,1.058-1.405,2.149-1.789,2.964c-0.409-1.279-1.162-3.239-2.439-5.423
		c1.329-0.684,2.169-1.608,2.439-2.777c0.4-1.8-0.7-3.4-1.4-4.2c-1.1-1.4-2.8-1.8-4.5-2.2c-1.5-0.4-3.2-0.8-4.5-1.9
		c-0.1-0.1-0.3-0.1-0.4-0.1c-0.1,0.1-0.2,0.2-0.3,0.3c-1.7,3.3-0.8,9.4,1.1,11.6C393.8,237.8,395.2,238.6,396.5,238.6z M404.1,235.9
		c0-0.7,0.4-1.4,1.2-1.9c0.8-0.6,1.6-0.8,2.5-1c0.9-0.3,1.9-0.5,3-1.2c0.6,2.2,0,5.7-1.1,6.9c-0.6,0.7-1.4,1.1-2.1,1.1
		c-0.944,0-1.518-0.736-1.915-1.514c0.72-0.86,1.588-1.658,2.615-2.186c0.2-0.2,0.3-0.5,0.2-0.7c-0.2-0.2-0.5-0.3-0.7-0.2
		c-1.117,0.538-2.053,1.353-2.835,2.24C404.4,236.973,404.1,236.404,404.1,235.9z M392.2,225.8c1.4,1,3,1.4,4.5,1.7
		c1.6,0.4,3.1,0.7,4,1.8c0.9,1.1,1.3,2.3,1.1,3.3c-0.273,0.909-0.985,1.645-2.159,2.223c-1.17-1.847-2.712-3.806-4.741-5.623
		c-0.2-0.2-0.5-0.2-0.7,0c-0.2,0.2-0.2,0.5,0,0.7c2.011,1.813,3.536,3.797,4.687,5.65c-0.597,1.333-1.446,2.05-2.387,2.05
		c-1,0-2.1-0.7-3.1-1.9C391.8,233.9,391,228.8,392.2,225.8z"/>
	<path fill="#0D181F" d="M415.3,247.9c-1.2-1.2-2.5-2.1-4.3-1.6l-4.427,1.476c0.013-0.092,0.027-0.183,0.027-0.276c0-1-0.7-2-2-2
		c-0.9,0-1.5,0-1.9,0c-0.7,0-1.1,0-2,0c-1.7-1.3-3.7-2-5.7-2h-3.5V243c0-0.3-0.2-0.5-0.5-0.5h-5c-0.3,0-0.5,0.2-0.5,0.5v9
		c0,0.3,0.2,0.5,0.5,0.5h5c0.3,0,0.5-0.2,0.5-0.5v-0.303c1.246,0.409,2.352,0.758,3.3,1.103c3.2,1.1,5,1.7,6.7,1.7c2.1,0,4-1,8-2.9
		c1.5-0.8,3.4-1.8,5.6-2.9c0.2-0.1,0.3-0.2,0.3-0.4C415.5,248.2,415.4,248,415.3,247.9z M390.5,251.5h-4v-8h4V251.5z M409.2,250.6
		c-7.2,3.8-7.2,3.8-14.1,1.4c-1.024-0.372-2.229-0.832-3.6-1.297V244.5h3.5c1.9,0,3.6,0.6,5.2,1.9c0.1,0.1,0.2,0.1,0.3,0.1
		c1,0,1.4,0,2.1,0c0.5,0,1,0,1.9,0c0.7,0,1,0.5,1,1s-0.3,1-1,1h-7c-0.3,0-0.5,0.2-0.5,0.5c0,0.3,0.2,0.5,0.5,0.5h7
		c0.57,0,1.036-0.199,1.389-0.499c0.004-0.001,0.007,0,0.011-0.001l5.4-1.8c1-0.2,1.8,0,2.8,0.9C412.2,249,410.5,249.9,409.2,250.6z
		"/>
</g>
<g>
	<path fill="#231F20" d="M229.81,232.001c1.884,0,3.47-1.076,4.731-3.198c2.986,5.346,3.966,9.687,3.981,9.758
		c0.094,0.433,0.463,0.753,0.905,0.785c0.024,0.002,0.048,0.003,0.073,0.003c0.414,0,0.789-0.257,0.936-0.648
		c0.017-0.045,1.019-2.651,2.955-5.367c1.257,1.96,2.808,2.428,3.992,2.428c1.587,0,3.324-0.871,4.764-2.389
		c2.4-2.53,3.781-9.367,1.91-13.441c-0.127-0.275-0.371-0.479-0.665-0.553c-0.289-0.073-0.604-0.012-0.847,0.172
		c-1.753,1.322-3.372,1.74-5.086,2.184c-1.478,0.382-3.006,0.776-4.515,1.782c-1.737,1.159-2.735,2.754-2.739,4.374
		c-0.003,0.972,0.372,2.352,1.979,3.707c-1.047,1.381-1.877,2.763-2.466,3.889c-0.662-1.992-1.821-4.923-3.694-8.171
		c1.995-1.119,3.197-2.508,3.576-4.142c0.462-1.994-0.311-4.191-2.296-6.528c-1.855-2.188-4.341-2.935-6.972-3.727
		c-2.301-0.692-4.681-1.408-6.778-3.182c-0.231-0.196-0.539-0.279-0.835-0.218c-0.297,0.058-0.552,0.246-0.694,0.514
		c-2.757,5.212-1.46,14.705,1.557,18.26C225.017,229.985,227.263,232.001,229.81,232.001z M242.206,227.896
		c0.002-0.929,0.694-1.943,1.849-2.715c1.227-0.818,2.528-1.154,3.905-1.51c1.426-0.368,3.008-0.777,4.67-1.77
		c0.83,3.336-0.25,8.32-1.934,10.095c-1.049,1.105-2.287,1.766-3.313,1.766c-1.065,0-1.956-0.712-2.657-2.118
		c1.173-1.339,2.577-2.579,4.221-3.4c0.494-0.247,0.694-0.848,0.447-1.342c-0.247-0.494-0.847-0.692-1.342-0.447
		c-1.796,0.898-3.314,2.205-4.592,3.612C242.8,229.509,242.203,228.767,242.206,227.896z M223.311,212.067
		c2.129,1.469,4.404,2.153,6.445,2.768c2.442,0.734,4.551,1.369,6.023,3.105c1.069,1.258,2.261,3.108,1.873,4.783
		c-0.25,1.08-1.153,2.044-2.67,2.879c-1.837-2.881-4.231-5.918-7.341-8.717c-0.41-0.369-1.043-0.337-1.412,0.074
		c-0.37,0.41-0.336,1.043,0.074,1.412c2.977,2.679,5.277,5.62,7.037,8.41c-0.988,2.131-2.174,3.22-3.531,3.22
		c-1.37,0-3.084-1.095-4.704-3.003C222.778,224.256,221.635,216.696,223.311,212.067z"/>
	<path fill="#231F20" d="M260.207,245.794c-2.35-2.347-4.372-3-7.021-2.242l-7.345,2.436c-0.236-1.305-1.371-2.487-3.341-2.487
		h-5.595c-1.487-1.401-4.859-4-9.405-4h-5v-1c0-0.553-0.448-1-1-1h-8c-0.552,0-1,0.447-1,1v16c0,0.553,0.448,1,1,1h8
		c0.552,0,1-0.447,1-1v-1.608c2.004,0.679,3.749,1.291,5.261,1.822c4.938,1.736,7.689,2.687,10.188,2.687
		c3.041,0,5.706-1.407,11.479-4.515c2.7-1.453,6.062-3.263,10.52-5.491c0.287-0.144,0.488-0.417,0.54-0.734
		C260.538,246.344,260.435,246.021,260.207,245.794z M220.5,253.501h-6v-14h6V253.501z M248.48,251.126
		c-9.838,5.296-9.838,5.297-20.056,1.702c-1.678-0.59-3.637-1.277-5.924-2.045v-9.282h5c4.139,0,7.178,2.593,8.293,3.707
		c0.188,0.188,0.442,0.293,0.707,0.293h6c1.026,0,1.391,0.539,1.391,1s-0.364,1-1.391,1h-11c-0.552,0-1,0.447-1,1s0.448,1,1,1h11
		c1.278,0,2.194-0.505,2.752-1.21l8.522-2.828c1.32-0.376,2.455-0.353,3.962,0.806C253.897,248.21,250.92,249.813,248.48,251.126z"
		/>
</g>
<g>
	<path fill="#231F20" d="M553.155,242.8c0.942,0,1.735-0.538,2.366-1.599c1.493,2.673,1.983,4.844,1.991,4.879
		c0.047,0.216,0.231,0.376,0.453,0.393c0.012,0.001,0.024,0.001,0.036,0.001c0.207,0,0.394-0.128,0.468-0.324
		c0.008-0.023,0.509-1.325,1.478-2.683c0.629,0.98,1.404,1.214,1.996,1.214c0.794,0,1.662-0.436,2.382-1.194
		c1.2-1.265,1.891-4.684,0.955-6.721c-0.063-0.138-0.186-0.239-0.333-0.276c-0.145-0.037-0.302-0.006-0.423,0.086
		c-0.876,0.661-1.686,0.87-2.543,1.092c-0.739,0.191-1.503,0.388-2.258,0.891c-0.868,0.58-1.368,1.377-1.37,2.187
		c-0.001,0.486,0.186,1.176,0.99,1.854c-0.524,0.691-0.938,1.382-1.233,1.944c-0.331-0.996-0.911-2.461-1.847-4.085
		c0.998-0.56,1.599-1.254,1.788-2.071c0.231-0.997-0.155-2.096-1.148-3.264c-0.927-1.094-2.17-1.467-3.486-1.863
		c-1.151-0.346-2.34-0.704-3.389-1.591c-0.115-0.098-0.27-0.14-0.418-0.109c-0.149,0.029-0.276,0.123-0.347,0.257
		c-1.378,2.606-0.73,7.353,0.779,9.13C550.759,241.792,551.881,242.8,553.155,242.8z M559.353,240.747
		c0.001-0.464,0.347-0.972,0.925-1.357c0.614-0.409,1.264-0.577,1.953-0.755c0.713-0.184,1.504-0.389,2.335-0.885
		c0.415,1.668-0.125,4.16-0.967,5.047c-0.524,0.553-1.144,0.883-1.656,0.883c-0.532,0-0.978-0.356-1.328-1.059
		c0.587-0.669,1.289-1.289,2.11-1.7c0.247-0.124,0.347-0.424,0.224-0.671c-0.123-0.247-0.423-0.346-0.671-0.224
		c-0.898,0.449-1.657,1.103-2.296,1.806C559.65,241.554,559.352,241.182,559.353,240.747z M549.905,232.833
		c1.064,0.734,2.202,1.077,3.222,1.384c1.221,0.367,2.275,0.685,3.012,1.553c0.534,0.629,1.13,1.554,0.937,2.392
		c-0.125,0.54-0.577,1.022-1.335,1.439c-0.918-1.441-2.115-2.959-3.67-4.358c-0.205-0.185-0.521-0.168-0.706,0.037
		c-0.185,0.205-0.168,0.521,0.037,0.706c1.488,1.339,2.638,2.81,3.519,4.205c-0.494,1.066-1.087,1.61-1.766,1.61
		c-0.685,0-1.542-0.547-2.352-1.501C549.639,238.927,549.067,235.147,549.905,232.833z"/>
	<path fill="#231F20" d="M568.354,249.696c-1.175-1.173-2.186-1.5-3.511-1.121l-3.672,1.218c-0.118-0.653-0.685-1.244-1.67-1.244
		h-2.797c-0.743-0.701-2.429-2-4.703-2h-2.5v-0.5c0-0.276-0.224-0.5-0.5-0.5h-4c-0.276,0-0.5,0.224-0.5,0.5v8
		c0,0.276,0.224,0.5,0.5,0.5h4c0.276,0,0.5-0.224,0.5-0.5v-0.804c1.002,0.339,1.874,0.645,2.631,0.911
		c2.469,0.868,3.845,1.343,5.094,1.343c1.52,0,2.853-0.704,5.74-2.257c1.35-0.727,3.031-1.631,5.26-2.746
		c0.144-0.072,0.244-0.208,0.27-0.367C568.519,249.971,568.467,249.81,568.354,249.696z M548.5,253.55h-3v-7h3V253.55z
		 M562.49,252.362c-4.919,2.648-4.919,2.648-10.028,0.851c-0.839-0.295-1.819-0.639-2.962-1.023v-4.641h2.5
		c2.07,0,3.589,1.296,4.146,1.854c0.094,0.094,0.221,0.146,0.354,0.146h3c0.513,0,0.695,0.27,0.695,0.5s-0.182,0.5-0.695,0.5H554
		c-0.276,0-0.5,0.224-0.5,0.5s0.224,0.5,0.5,0.5h5.5c0.639,0,1.097-0.252,1.376-0.605l4.261-1.414
		c0.66-0.188,1.228-0.176,1.981,0.403C565.199,250.904,563.71,251.706,562.49,252.362z"/>
</g>
<path fill="#231F20" d="M570.403,333.204C570.309,333.076,570.159,333,570,333h-2v-2c0-0.159-0.076-0.309-0.204-0.403
	c-0.128-0.094-0.293-0.123-0.445-0.074c-0.091,0.028-1.146,0.367-2.304,0.987c-0.016-0.002-0.03-0.009-0.047-0.009
	c-0.202,0-0.373,0.12-0.452,0.292c-1.154,0.69-2.292,1.649-2.591,2.863c-0.233,0.945,0.055,1.896,0.85,2.83l-1.317,1.317
	c-1.593-1.427-3.689-2.302-5.991-2.302c-4.962,0-9,4.038-9,9c0,2.302,0.876,4.397,2.302,5.991l-2.156,2.156
	c-0.195,0.195-0.195,0.512,0,0.707c0.098,0.098,0.226,0.146,0.354,0.146s0.256-0.049,0.354-0.146l2.156-2.156
	c1.593,1.427,3.689,2.302,5.991,2.302s4.397-0.876,5.991-2.302l2.156,2.156c0.098,0.098,0.226,0.146,0.354,0.146
	s0.256-0.049,0.354-0.146c0.195-0.195,0.195-0.512,0-0.707l-2.156-2.156c1.427-1.593,2.302-3.689,2.302-5.991
	c0-2.302-0.876-4.397-2.302-5.991l1.318-1.318c0.723,0.615,1.46,0.928,2.197,0.928c3.021,0,4.695-5.248,4.765-5.471
	C570.525,333.498,570.497,333.332,570.403,333.204z M567,333.293l-1.5,1.5v-2.395c0.53-0.285,1.059-0.519,1.5-0.69V333.293z
	 M562.928,334.895c0.174-0.709,0.807-1.349,1.572-1.885v2.783l-0.982,0.982C562.976,336.117,562.78,335.499,562.928,334.895z
	 M563.5,345.5c0,2.19-0.886,4.176-2.316,5.622c-0.012,0.01-0.026,0.014-0.037,0.025s-0.015,0.025-0.025,0.037
	c-1.446,1.431-3.432,2.316-5.622,2.316c-2.19,0-4.176-0.886-5.622-2.316c-0.01-0.012-0.014-0.026-0.025-0.037
	s-0.025-0.015-0.037-0.025c-1.431-1.446-2.316-3.432-2.316-5.622c0-4.411,3.589-8,8-8c2.026,0,3.873,0.763,5.284,2.009l-1.413,1.413
	c-1.046-0.886-2.396-1.423-3.87-1.423c-3.309,0-6,2.691-6,6c0,3.309,2.691,6,6,6s6-2.691,6-6c0-1.475-0.537-2.825-1.423-3.87
	l1.413-1.413C562.737,341.627,563.5,343.474,563.5,345.5z M557.5,345.5c0,1.103-0.897,2-2,2s-2-0.897-2-2c0-1.103,0.897-2,2-2
	c0.37,0,0.712,0.108,1.01,0.283l-0.754,0.754c-0.082-0.022-0.167-0.037-0.256-0.037c-0.551,0-1,0.449-1,1s0.449,1,1,1s1-0.449,1-1
	c0-0.089-0.015-0.174-0.037-0.256l0.754-0.754C557.392,344.788,557.5,345.13,557.5,345.5z M557.236,343.057
	c-0.491-0.35-1.089-0.557-1.736-0.557c-1.654,0-3,1.346-3,3c0,1.654,1.346,3,3,3s3-1.346,3-3c0-0.647-0.208-1.245-0.557-1.736
	l1.427-1.427c0.706,0.862,1.131,1.963,1.131,3.162c0,2.757-2.243,5-5,5s-5-2.243-5-5c0-2.757,2.243-5,5-5
	c1.199,0,2.3,0.425,3.162,1.131L557.236,343.057z M565.712,338.12c-0.473,0-0.972-0.217-1.486-0.639l1.127-1.127
	c0,0,0.001-0.001,0.001-0.001l2.353-2.353h1.586C568.69,335.555,567.352,338.12,565.712,338.12z"/>
<path fill="#231F20" d="M259.306,315.907c-0.188-0.256-0.487-0.407-0.806-0.407h-4v-4c0-0.318-0.151-0.617-0.408-0.806
	c-0.256-0.189-0.589-0.247-0.891-0.148c-0.182,0.057-2.291,0.735-4.607,1.973c-0.033-0.003-0.061-0.019-0.094-0.019
	c-0.403,0-0.745,0.241-0.904,0.584c-2.309,1.38-4.585,3.299-5.182,5.727c-0.465,1.891,0.11,3.791,1.701,5.66l-2.634,2.634
	c-3.186-2.853-7.378-4.605-11.981-4.605c-9.925,0-18,8.075-18,18c0,4.603,1.752,8.795,4.605,11.981l-4.312,4.312
	c-0.391,0.391-0.391,1.023,0,1.414c0.195,0.195,0.451,0.293,0.707,0.293s0.512-0.098,0.707-0.293l4.312-4.312
	c3.186,2.853,7.378,4.605,11.981,4.605s8.795-1.752,11.981-4.605l4.312,4.312c0.195,0.195,0.451,0.293,0.707,0.293
	s0.512-0.098,0.707-0.293c0.391-0.391,0.391-1.023,0-1.414l-4.312-4.312c2.853-3.186,4.605-7.378,4.605-11.981
	s-1.752-8.795-4.605-11.981l2.635-2.635c1.446,1.229,2.92,1.857,4.393,1.857c6.042,0,9.391-10.495,9.531-10.942
	C259.549,316.495,259.494,316.164,259.306,315.907z M252.5,316.086l-3,3v-4.79c1.06-0.57,2.119-1.037,3-1.381V316.086z
	 M244.356,319.29c0.348-1.417,1.614-2.699,3.144-3.77v5.566l-1.964,1.964C244.452,321.734,244.06,320.498,244.356,319.29z
	 M245.5,340.5c0,4.38-1.772,8.352-4.633,11.244c-0.023,0.019-0.052,0.027-0.074,0.049s-0.03,0.051-0.049,0.074
	c-2.892,2.861-6.864,4.633-11.244,4.633s-8.352-1.772-11.244-4.633c-0.019-0.023-0.027-0.052-0.049-0.074s-0.051-0.03-0.074-0.049
	c-2.861-2.892-4.633-6.864-4.633-11.244c0-8.822,7.178-16,16-16c4.052,0,7.746,1.526,10.568,4.018l-2.827,2.827
	c-2.092-1.771-4.792-2.845-7.741-2.845c-6.617,0-12,5.383-12,12s5.383,12,12,12s12-5.383,12-12c0-2.949-1.074-5.649-2.845-7.741
	l2.827-2.827C243.974,332.754,245.5,336.448,245.5,340.5z M233.5,340.5c0,2.206-1.794,4-4,4s-4-1.794-4-4s1.794-4,4-4
	c0.74,0,1.424,0.215,2.019,0.567l-1.508,1.508c-0.164-0.044-0.334-0.075-0.511-0.075c-1.103,0-2,0.897-2,2s0.897,2,2,2s2-0.897,2-2
	c0-0.178-0.031-0.347-0.075-0.511l1.508-1.508C233.285,339.076,233.5,339.76,233.5,340.5z M232.971,335.615
	c-0.981-0.699-2.177-1.115-3.471-1.115c-3.309,0-6,2.691-6,6s2.691,6,6,6s6-2.691,6-6c0-1.294-0.416-2.49-1.115-3.471l2.853-2.853
	c1.412,1.725,2.262,3.927,2.262,6.324c0,5.514-4.486,10-10,10s-10-4.486-10-10s4.486-10,10-10c2.398,0,4.6,0.85,6.324,2.262
	L232.971,335.615z M249.924,325.74c-0.947,0-1.945-0.434-2.973-1.277l2.255-2.255c0.001-0.001,0.001-0.001,0.002-0.002l4.706-4.706
	h3.172C255.88,320.61,253.203,325.74,249.924,325.74z"/>
<path d="M110.31,304.913c-0.188-0.26-0.489-0.413-0.81-0.413h-5v-5c0-0.32-0.154-0.622-0.413-0.81
	c-0.259-0.188-0.594-0.238-0.898-0.141c-0.515,0.169-12.626,4.211-14.24,10.975c-0.558,2.339,0.179,4.671,2.167,6.946l-2.084,2.084
	c-4.095-3.757-9.55-6.054-15.532-6.054c-12.682,0-23,10.317-23,23c0,5.982,2.297,11.437,6.054,15.532l-5.761,5.761
	c-0.391,0.391-0.391,1.023,0,1.414c0.195,0.195,0.451,0.293,0.707,0.293s0.512-0.098,0.707-0.293l5.761-5.761
	c4.095,3.757,9.55,6.054,15.532,6.054c5.982,0,11.436-2.297,15.532-6.053l5.761,5.76c0.195,0.195,0.451,0.293,0.707,0.293
	s0.512-0.098,0.707-0.293c0.391-0.391,0.391-1.023,0-1.414l-5.761-5.76c3.757-4.095,6.054-9.55,6.054-15.532
	c0-5.982-2.297-11.437-6.054-15.532l2.078-2.078c1.779,1.554,3.603,2.342,5.436,2.342c7.675,0,12.298-13.832,12.491-14.421
	C110.55,305.507,110.498,305.173,110.31,304.913z M102.5,305.086l-4,4v-6.344c1.55-0.805,3.006-1.422,4-1.81V305.086z
	 M90.893,309.99c0.58-2.431,3.009-4.516,5.607-6.116v7.211l-3.974,3.974C91.032,313.319,90.497,311.654,90.893,309.99z M94.5,335.5
	c0,11.579-9.42,21-21,21s-21-9.421-21-21s9.42-21,21-21c5.43,0,10.37,2.09,14.102,5.484l-4.241,4.241
	c-2.64-2.312-6.085-3.725-9.861-3.725c-8.271,0-15,6.729-15,15s6.729,15,15,15s15-6.729,15-15c0-3.776-1.413-7.221-3.725-9.861
	l4.241-4.241C92.411,325.13,94.5,330.07,94.5,335.5z M78.5,335.5c0,2.757-2.243,5-5,5s-5-2.243-5-5s2.243-5,5-5
	c1.017,0,1.962,0.309,2.753,0.833l-2.242,2.242c-0.164-0.044-0.334-0.075-0.511-0.075c-1.103,0-2,0.897-2,2s0.897,2,2,2s2-0.897,2-2
	c0-0.178-0.031-0.347-0.075-0.511l2.242-2.242C78.191,333.538,78.5,334.483,78.5,335.5z M77.684,329.902
	c-1.169-0.876-2.615-1.402-4.184-1.402c-3.86,0-7,3.141-7,7s3.14,7,7,7s7-3.141,7-7c0-1.57-0.526-3.015-1.402-4.184l4.263-4.263
	c1.951,2.275,3.139,5.223,3.139,8.447c0,7.168-5.832,13-13,13s-13-5.832-13-13s5.832-13,13-13c3.225,0,6.173,1.187,8.447,3.139
	L77.684,329.902z M97.959,318.232c-1.301,0-2.649-0.596-4.015-1.763l4.262-4.262c0.001-0.001,0.001-0.001,0.002-0.002l5.706-5.706
	h4.165C106.467,310.684,102.597,318.232,97.959,318.232z"/>
<path d="M416.405,328.706c-0.094-0.13-0.244-0.207-0.405-0.207h-2.5v-2.5c0-0.16-0.077-0.311-0.207-0.405
	c-0.129-0.094-0.297-0.119-0.449-0.07c-0.257,0.084-6.313,2.105-7.12,5.487c-0.279,1.169,0.089,2.336,1.084,3.473l-1.042,1.042
	c-2.048-1.878-4.775-3.027-7.766-3.027c-6.341,0-11.5,5.159-11.5,11.5c0,2.991,1.149,5.718,3.027,7.766l-2.88,2.88
	c-0.195,0.195-0.195,0.512,0,0.707c0.098,0.098,0.226,0.146,0.354,0.146s0.256-0.049,0.354-0.146l2.88-2.88
	c2.048,1.878,4.775,3.027,7.766,3.027c2.991,0,5.718-1.149,7.766-3.027l2.881,2.88c0.098,0.098,0.226,0.146,0.354,0.146
	s0.256-0.049,0.354-0.146c0.195-0.195,0.195-0.512,0-0.707l-2.881-2.88c1.878-2.048,3.027-4.775,3.027-7.766
	c0-2.991-1.149-5.718-3.027-7.766l1.039-1.039c0.889,0.777,1.802,1.171,2.718,1.171c3.837,0,6.149-6.916,6.245-7.21
	C416.525,329.003,416.499,328.836,416.405,328.706z M412.5,328.792l-2,2v-3.172c0.775-0.403,1.503-0.711,2-0.905V328.792z
	 M406.697,331.245c0.29-1.215,1.505-2.258,2.803-3.058v3.606l-1.987,1.987C406.766,332.909,406.498,332.076,406.697,331.245z
	 M408.5,343.999c0,5.79-4.71,10.5-10.5,10.5c-5.79,0-10.5-4.71-10.5-10.5c0-5.79,4.71-10.5,10.5-10.5
	c2.715,0,5.185,1.045,7.051,2.742l-2.12,2.12c-1.32-1.156-3.042-1.862-4.931-1.862c-4.135,0-7.5,3.364-7.5,7.5
	c0,4.136,3.365,7.5,7.5,7.5c4.135,0,7.5-3.364,7.5-7.5c0-1.888-0.707-3.611-1.862-4.93l2.12-2.12
	C407.455,338.815,408.5,341.284,408.5,343.999z M400.5,343.999c0,1.378-1.122,2.5-2.5,2.5s-2.5-1.122-2.5-2.5s1.122-2.5,2.5-2.5
	c0.509,0,0.981,0.155,1.376,0.417l-1.121,1.121c-0.082-0.022-0.167-0.037-0.256-0.037c-0.552,0-1,0.449-1,1s0.448,1,1,1s1-0.449,1-1
	c0-0.089-0.015-0.174-0.037-0.256l1.121-1.121C400.345,343.018,400.5,343.491,400.5,343.999z M400.092,341.2
	c-0.584-0.438-1.307-0.701-2.092-0.701c-1.93,0-3.5,1.57-3.5,3.5s1.57,3.5,3.5,3.5s3.5-1.57,3.5-3.5
	c0-0.785-0.263-1.508-0.701-2.092l2.132-2.132c0.976,1.137,1.569,2.611,1.569,4.224c0,3.584-2.916,6.5-6.5,6.5
	c-3.584,0-6.5-2.916-6.5-6.5c0-3.584,2.916-6.5,6.5-6.5c1.612,0,3.086,0.594,4.224,1.569L400.092,341.2z M410.23,335.366
	c-0.651,0-1.324-0.298-2.008-0.881l2.131-2.131c0,0,0,0,0.001-0.001l2.853-2.853h2.083
	C414.483,331.591,412.549,335.366,410.23,335.366z"/>
<g>
	<path d="M112.281,150.875l-7.781-9.726V129.5c0-4.565-3.186-8.302-8-12.457V96.5c0-2.206-1.794-4-4-4h-36c-2.206,0-4,1.794-4,4v44
		c0,2.206,1.794,4,4,4h36.421c1.163,3.199,4.373,7.115,4.811,7.64c0.198,0.237,0.482,0.36,0.769,0.36
		c0.226,0,0.453-0.076,0.64-0.232c0.424-0.353,0.481-0.984,0.128-1.408c-1.664-1.997-4.2-5.628-4.681-7.729
		c-0.003-0.006-0.002-0.014-0.005-0.021c-0.049-0.22-0.083-0.428-0.083-0.61v-2.333l-6.2-8.267l-0.093-0.107
		c-0.604-0.604-0.604-1.982,0-2.586c0.604-0.604,1.981-0.604,2.586,0l4,4c0,0,0,0,0.001,0.001l2,2c0.391,0.391,1.023,0.391,1.414,0
		s0.391-1.023,0-1.414l-1.707-1.707V119.71c3.66,3.33,6,6.369,6,9.79v12.351l8.219,10.273c0.197,0.247,0.488,0.375,0.781,0.375
		c0.219,0,0.44-0.072,0.624-0.219C112.556,151.936,112.626,151.307,112.281,150.875z M86.793,127.793
		c-1.373,1.373-1.392,3.954-0.054,5.358l1.012,1.349l-27.251,0v-34h28v26.383C87.857,127.038,87.254,127.332,86.793,127.793z
		 M92.207,127.793c-0.461-0.461-1.064-0.755-1.707-0.91V98.5h-32v38l30.75,0l3.25,4.333v1.667h-36c-1.103,0-2-0.897-2-2v-44
		c0-1.103,0.897-2,2-2h36c1.103,0,2,0.897,2,2v33.586L92.207,127.793z"/>
	<rect x="70.5" y="138.5" width="8" height="2"/>
	<rect x="65.5" y="112.5" width="18" height="2"/>
	<rect x="65.5" y="108.5" width="18" height="2"/>
	<rect x="65.5" y="120.5" width="18" height="2"/>
	<rect x="65.5" y="116.5" width="18" height="2"/>
	<rect x="65.5" y="124.5" width="18" height="2"/>
	<rect x="65.5" y="104.5" width="10" height="2"/>
	<circle cx="81.5" cy="139.5" r="1"/>
	<circle cx="67.5" cy="139.5" r="1"/>
</g>
<g>
	<path d="M416.39,136.688l-3.89-4.863V126c0-2.282-1.593-4.151-4-6.228V109.5c0-1.103-0.897-2-2-2h-18c-1.103,0-2,0.897-2,2v22
		c0,1.103,0.897,2,2,2h18.211c0.582,1.599,2.187,3.558,2.405,3.82c0.099,0.119,0.241,0.18,0.384,0.18
		c0.113,0,0.226-0.038,0.32-0.116c0.212-0.177,0.241-0.492,0.064-0.704c-0.832-0.999-2.1-2.814-2.341-3.865
		c-0.001-0.003-0.001-0.007-0.002-0.01c-0.025-0.11-0.041-0.214-0.041-0.305v-1.167l-3.1-4.133l-0.046-0.053
		c-0.302-0.302-0.302-0.991,0-1.293c0.302-0.302,0.991-0.302,1.293,0l2,2c0,0,0,0,0,0l1,1c0.195,0.195,0.512,0.195,0.707,0
		s0.195-0.512,0-0.707l-0.854-0.854v-6.188c1.83,1.665,3,3.184,3,4.895v6.176l4.11,5.137c0.099,0.124,0.244,0.188,0.391,0.188
		c0.11,0,0.22-0.036,0.312-0.11C416.528,137.218,416.563,136.903,416.39,136.688z M403.646,125.146
		c-0.687,0.687-0.696,1.977-0.027,2.679l0.506,0.675l-13.625,0v-17h14v13.191C404.178,124.769,403.877,124.916,403.646,125.146z
		 M406.353,125.146c-0.231-0.231-0.532-0.377-0.854-0.455V110.5h-16v19l15.375,0l1.625,2.167v0.833h-18c-0.552,0-1-0.448-1-1v-22
		c0-0.552,0.448-1,1-1h18c0.552,0,1,0.448,1,1v16.793L406.353,125.146z"/>
	<rect x="395.5" y="130.5" width="4" height="1"/>
	<rect x="393" y="117.5" width="9" height="1"/>
	<rect x="393" y="115.5" width="9" height="1"/>
	<rect x="393" y="121.5" width="9" height="1"/>
	<rect x="393" y="119.5" width="9" height="1"/>
	<rect x="393" y="123.5" width="9" height="1"/>
	<rect x="393" y="113.5" width="5" height="1"/>
	<circle cx="401" cy="131" r="0.5"/>
	<circle cx="394" cy="131" r="0.5"/>
</g>
<g>
	<path fill="#231F20" d="M269.3,143.9l-5.8-7.733v-8.783c0-3.529-2.786-6.704-7-10.341V101.5c0-2.206-1.794-4-4-4h-26
		c-2.206,0-4,1.794-4,4v36c0,2.204,1.793,4.002,3.997,4.01l28.712,0.091c1.002,1.604,2.141,3.062,2.51,3.523
		c0.198,0.247,0.488,0.375,0.782,0.375c0.219,0,0.439-0.072,0.624-0.219c0.431-0.345,0.501-0.974,0.156-1.405
		c-1.818-2.274-3.781-5.358-3.781-6.375v-2.312l-2.057-2.972c-0.061-0.202-0.18-0.37-0.343-0.495l-2.277-3.29l-0.108-0.13
		c-0.193-0.231-0.37-1.23-0.006-1.594c0.141-0.141,0.32-0.217,0.507-0.264c0.092,0.028,0.184,0.057,0.285,0.057
		c0.101,0,0.192-0.03,0.284-0.057c0.188,0.047,0.368,0.124,0.509,0.264l2.415,2.415c0.06,0.081,0.128,0.15,0.21,0.21l1.875,1.875
		c0.391,0.391,1.023,0.391,1.414,0s0.391-1.023,0-1.414l-1.707-1.707v-8.373c2.757,2.515,5,5.132,5,7.67v9.45l6.2,8.267
		c0.196,0.262,0.496,0.4,0.801,0.4c0.209,0,0.419-0.065,0.599-0.2C269.542,144.969,269.632,144.342,269.3,143.9z M249.219,129.628
		l1.296,1.872H228.5v-28h22v21.077c-0.447,0.143-0.865,0.374-1.206,0.716c-0.578,0.576-0.858,1.429-0.79,2.401
		C248.558,128.471,248.824,129.184,249.219,129.628z M253.707,125.292c-0.342-0.341-0.761-0.572-1.207-0.715V101.5h-26v32h25.399
		l1.601,2.312v1.688c0,0.58,0.239,1.315,0.602,2.098l-27.599-0.088c-1.104-0.003-2.003-0.905-2.003-2.01v-36c0-1.103,0.897-2,2-2h26
		c1.103,0,2,0.897,2,2v24.586L253.707,125.292z"/>
	<rect x="235.5" y="135.5" fill="#231F20" width="6" height="2"/>
	<circle fill="#231F20" cx="232.5" cy="136.5" r="1"/>
	<circle fill="#231F20" cx="244.5" cy="136.5" r="1"/>
	<rect x="232.5" y="123.5" fill="#231F20" width="14" height="2"/>
	<rect x="232.5" y="119.5" fill="#231F20" width="14" height="2"/>
	<rect x="232.5" y="115.5" fill="#231F20" width="14" height="2"/>
	<rect x="232.5" y="111.5" fill="#231F20" width="14" height="2"/>
	<rect x="232.5" y="107.5" fill="#231F20" width="8" height="2"/>
</g>
<g>
	<path fill="#231F20" d="M567.9,133.7l-2.9-3.867v-4.392c0-1.765-1.393-3.352-3.5-5.17V112.5c0-1.103-0.897-2-2-2h-13
		c-1.103,0-2,0.897-2,2v18c0,1.102,0.896,2.001,1.999,2.005l14.356,0.046c0.501,0.802,1.07,1.531,1.255,1.762
		c0.099,0.124,0.244,0.188,0.391,0.188c0.109,0,0.22-0.036,0.312-0.11c0.215-0.172,0.25-0.487,0.078-0.703
		c-0.909-1.137-1.891-2.679-1.891-3.188v-1.156l-1.029-1.486c-0.031-0.101-0.09-0.185-0.171-0.248l-1.139-1.645l-0.054-0.065
		c-0.097-0.115-0.185-0.615-0.003-0.797c0.07-0.07,0.16-0.109,0.254-0.132c0.046,0.014,0.092,0.029,0.142,0.029
		c0.05,0,0.096-0.015,0.142-0.029c0.094,0.024,0.184,0.062,0.254,0.132l1.208,1.208c0.03,0.041,0.064,0.075,0.105,0.105l0.938,0.937
		c0.195,0.195,0.512,0.195,0.707,0s0.195-0.512,0-0.707l-0.854-0.854v-4.186c1.379,1.257,2.5,2.566,2.5,3.835v4.725l3.1,4.133
		c0.098,0.131,0.248,0.2,0.4,0.2c0.104,0,0.209-0.032,0.299-0.1C568.021,134.234,568.066,133.921,567.9,133.7z M557.859,126.564
		l0.648,0.936H547.5v-14h11v10.538c-0.223,0.072-0.433,0.187-0.603,0.358c-0.289,0.288-0.429,0.714-0.395,1.2
		C557.529,125.985,557.662,126.342,557.859,126.564z M560.104,124.396c-0.171-0.171-0.38-0.286-0.604-0.358V112.5h-13v16h12.7
		l0.8,1.156v0.844c0,0.29,0.12,0.657,0.301,1.049l-13.799-0.044c-0.552-0.002-1.001-0.453-1.001-1.005v-18c0-0.552,0.449-1,1-1h13
		c0.551,0,1,0.448,1,1v12.293L560.104,124.396z"/>
	<rect x="551" y="129.5" fill="#231F20" width="3" height="1"/>
	<circle fill="#231F20" cx="549.5" cy="130" r="0.5"/>
	<circle fill="#231F20" cx="555.5" cy="130" r="0.5"/>
	<rect x="549.5" y="123.5" fill="#231F20" width="7" height="1"/>
	<rect x="549.5" y="121.5" fill="#231F20" width="7" height="1"/>
	<rect x="549.5" y="119.5" fill="#231F20" width="7" height="1"/>
	<rect x="549.5" y="117.5" fill="#231F20" width="7" height="1"/>
	<rect x="549.5" y="115.5" fill="#231F20" width="4" height="1"/>
</g>
</svg>
